HIERARCHY
ROOT SpineBase
{
  OFFSET 0.000000 0.000000 0.000000
  CHANNELS 6 Xposition Yposition Zposition Zrotation Xrotation Yrotation
  JOINT SpineMid
  {
    OFFSET 0.000000 30.990951 0.000000
    CHANNELS 3 Zrotation Xrotation Yrotation
    JOINT SpineShoulder
    {
      OFFSET 0.238198 23.012683 -0.753174
      CHANNELS 3 Zrotation Xrotation Yrotation
      JOINT Neck
      {
        OFFSET 0.179887 7.615766 -0.576259
        CHANNELS 3 Zrotation Xrotation Yrotation
        JOINT Head
        {
          OFFSET 4.201337 11.947559 4.943162
          CHANNELS 3 Zrotation Xrotation Yrotation
          End Site
          {
            OFFSET 0 0 0
          }
        }
      }
      JOINT ShoulderLeft
      {
        OFFSET -7.055151 -3.344102 -14.968348
        CHANNELS 3 Zrotation Xrotation Yrotation
        JOINT ElbowLeft
        {
          OFFSET -4.701352 -20.892183 -5.795888
          CHANNELS 3 Zrotation Xrotation Yrotation
          JOINT WristLeft
          {
            OFFSET 23.891511 -11.234581 6.960908
            CHANNELS 3 Zrotation Xrotation Yrotation
            JOINT HandLeft
            {
              OFFSET 7.184507 -2.346559 5.035794
              CHANNELS 3 Zrotation Xrotation Yrotation
              JOINT HandTipLeft
              {
                OFFSET 4.539199 -2.599961 2.478626
                CHANNELS 3 Zrotation Xrotation Yrotation
                End Site
                {
                  OFFSET 0 0 0
                }
              }
              JOINT ThumbLeft
              {
                OFFSET -0.101236 4.095606 2.595058
                CHANNELS 3 Zrotation Xrotation Yrotation
                End Site
                {
                  OFFSET 0 0 0
                }
              }
            }
          }
        }
      }
      JOINT ShoulderRight
      {
        OFFSET 7.955992 -4.594834 15.526540
        CHANNELS 3 Zrotation Xrotation Yrotation
        JOINT ElbowRight
        {
          OFFSET 3.179629 -25.579030 2.172298
          CHANNELS 3 Zrotation Xrotation Yrotation
          JOINT WristRight
          {
            OFFSET 8.115393 -11.030171 -24.847005
            CHANNELS 3 Zrotation Xrotation Yrotation
            JOINT HandRight
            {
              OFFSET -0.124234 0.722224 -3.208531
              CHANNELS 3 Zrotation Xrotation Yrotation
              JOINT HandTipRight
              {
                OFFSET 1.455307 -0.083496 -1.631252
                CHANNELS 3 Zrotation Xrotation Yrotation
                End Site
                {
                  OFFSET 0 0 0
                }
              }
              JOINT ThumbRight
              {
                OFFSET 2.306067 -2.097424 -0.206058
                CHANNELS 3 Zrotation Xrotation Yrotation
                End Site
                {
                  OFFSET 0 0 0
                }
              }
            }
          }
        }
      }
    }
  }
  JOINT HipLeft
  {
    OFFSET -2.146640 2.155127 -9.265565
    CHANNELS 3 Zrotation Xrotation Yrotation
    JOINT KneeLeft
    {
      OFFSET -8.464292 -35.819614 -5.696645
      CHANNELS 3 Zrotation Xrotation Yrotation
      JOINT AnkleLeft
      {
        OFFSET -10.796462 -35.249645 -0.844918
        CHANNELS 3 Zrotation Xrotation Yrotation
        JOINT FootLeft
        {
          OFFSET 10.155912 -3.471274 -7.838242
          CHANNELS 3 Zrotation Xrotation Yrotation
          End Site
          {
            OFFSET 0 0 0
          }
        }
      }
    }
  }
  JOINT HipRight
  {
    OFFSET 4.303505 -0.206332 2.218551
    CHANNELS 3 Zrotation Xrotation Yrotation
    JOINT KneeRight
    {
      OFFSET -2.700402 -37.783468 5.209744
      CHANNELS 3 Zrotation Xrotation Yrotation
      JOINT AnkleRight
      {
        OFFSET -8.268672 -32.960070 2.581634
        CHANNELS 3 Zrotation Xrotation Yrotation
        JOINT FootRight
        {
          OFFSET 9.954634 -3.528805 -7.937877
          CHANNELS 3 Zrotation Xrotation Yrotation
          End Site
          {
            OFFSET 0 0 0
          }
        }
      }
    }
  }
}
MOTION
Frames: 13
Frame Time: 0.033333
-98.962913 74.800899 324.310321 0.143760 -0.364108 -57.190974 -0.383921 0.076459 57.191687 -0.000000 0.000000 0.000000 1.908890 -2.776503 0.236714 0.000000 0.000000 0.000000 1.234990 -1.026397 -0.101081 -0.493569 1.262687 1.061691 -6.267147 7.100053 13.524266 1.179472 -3.264347 -9.593060 0.000000 0.000000 0.000000 0.000000 0.000000 0.000000 0.753719 0.543976 0.127999 -1.210008 -0.315006 1.052226 -4.463268 -16.267560 -15.805013 7.812089 40.423648 34.592171 0.000000 0.000000 0.000000 0.000000 0.000000 0.000000 -0.969124 0.604756 56.991271 -0.315447 0.051369 -0.047878 -0.021311 -0.273430 2.343437 0.000000 0.000000 0.000000 -0.383921 0.076459 57.191687 -0.000000 0.000000 0.000000 -0.191072 0.594525 2.093129 0.000000 0.000000 0.000000
-98.932375 74.820802 324.280773 0.164876 -0.338237 -57.358886 -0.373748 0.043599 57.359515 -0.000000 0.000000 0.000000 1.902879 -2.737744 0.224546 0.000000 0.000000 0.000000 1.281499 -0.987998 -0.122746 0.364265 1.106551 1.349473 -9.950435 8.518376 12.039176 4.492036 -5.807438 -8.142271 0.000000 0.000000 0.000000 0.000000 0.000000 0.000000 0.787280 1.280961 0.217318 -1.272864 -0.989701 1.047704 -4.513249 -16.647239 -15.945114 7.430206 39.267009 33.822767 0.000000 0.000000 0.000000 0.000000 0.000000 0.000000 -0.373748 0.043599 57.359515 -0.235616 0.870701 -0.259040 0.039491 -0.340206 2.247491 0.000000 0.000000 0.000000 -0.373748 0.043599 57.359515 -0.000000 0.000000 0.000000 -0.175809 0.567913 1.984686 0.000000 0.000000 0.000000
-98.898975 74.837389 324.283271 0.178594 -0.342083 -57.509753 -0.384474 0.033110 57.510397 -0.000000 0.000000 0.000000 1.945120 -2.693235 0.191126 0.000000 0.000000 0.000000 1.340308 -0.980500 -0.140431 0.770344 1.034690 1.493776 -12.244521 9.570455 11.713448 6.282846 -7.686424 -8.383932 0.000000 0.000000 0.000000 0.000000 0.000000 0.000000 0.750710 1.867694 0.283866 -2.273831 -3.459158 1.919655 -3.669385 -11.216024 -18.044502 7.426135 35.491501 34.314384 0.000000 0.000000 0.000000 0.000000 0.000000 0.000000 -0.384474 0.033110 57.510397 -0.282044 0.916849 -0.271549 0.093507 -0.406508 2.185676 0.000000 0.000000 0.000000 -0.384474 0.033110 57.510397 -0.000000 0.000000 0.000000 -0.166549 0.548025 1.908529 0.000000 0.000000 0.000000
-98.858200 74.848810 324.279445 0.193512 -0.342221 -57.623582 -0.392643 0.019821 57.624227 -0.000000 0.000000 0.000000 2.002954 -2.649536 0.151797 0.000000 0.000000 0.000000 1.365050 -0.935901 -0.157730 0.775267 0.996336 1.540863 -13.662701 10.381277 12.134731 4.540032 -9.637288 -14.471157 0.000000 0.000000 0.000000 0.000000 0.000000 0.000000 0.677145 2.063450 0.302079 -2.013115 -2.753790 2.128366 -4.355565 -12.978317 -19.181248 6.705174 34.452149 33.670212 0.000000 0.000000 0.000000 0.000000 0.000000 0.000000 -0.392643 0.019821 57.624227 -0.331679 0.974166 -0.287296 0.146687 -0.467714 2.183208 0.000000 0.000000 0.000000 -0.392643 0.019821 57.624227 -0.000000 0.000000 0.000000 -0.161734 0.544831 1.888692 0.000000 0.000000 0.000000
-98.811933 74.852734 324.281077 0.209023 -0.339860 -57.670888 -0.398960 0.005126 57.671526 -0.000000 0.000000 0.000000 2.108231 -2.647309 0.109202 0.000000 0.000000 0.000000 1.422182 -0.949415 -0.169991 0.873853 0.989490 1.597866 -12.038129 9.228300 10.619542 2.377742 -7.374895 -13.590194 0.000000 0.000000 0.000000 0.000000 0.000000 0.000000 0.723209 2.787067 0.390843 -0.249118 -0.346361 0.274394 -2.982605 -24.504172 -8.267696 8.029694 43.526288 32.447994 0.000000 0.000000 0.000000 0.000000 0.000000 0.000000 -0.398960 0.005126 57.671526 -0.402755 1.029005 -0.301517 0.216027 -0.508866 2.241738 0.000000 0.000000 0.000000 -0.398960 0.005126 57.671526 -0.000000 0.000000 0.000000 -0.162543 0.559645 1.931502 0.000000 0.000000 0.000000
-98.760100 74.845706 324.278470 0.224119 -0.322427 -57.617693 -0.392317 -0.016587 57.618267 -0.000000 0.000000 0.000000 2.267747 -2.708279 0.068929 0.000000 0.000000 0.000000 1.491113 -0.985340 -0.180085 -0.078441 1.202661 1.486247 -8.548164 7.582381 10.847865 7.219540 -11.927045 -13.418498 0.000000 0.000000 0.000000 0.000000 0.000000 0.000000 0.839659 3.049223 0.428664 1.691179 2.650681 -1.750245 -5.269862 -21.479976 -9.626336 0.736797 28.911425 54.654675 0.000000 0.000000 0.000000 0.000000 0.000000 0.000000 -0.392317 -0.016587 57.618267 -0.463546 1.074046 -0.313060 0.269292 -0.519512 2.369906 0.000000 0.000000 0.000000 -0.392317 -0.016587 57.618267 -0.000000 0.000000 0.000000 -0.170375 0.595093 2.047337 0.000000 0.000000 0.000000
-98.709336 74.819115 324.269354 0.247193 -0.289404 -57.450491 -0.376943 -0.052660 57.450942 -0.000000 0.000000 0.000000 2.401239 -2.786410 0.045603 0.000000 0.000000 0.000000 1.436463 -1.080531 -0.142594 1.089345 1.001025 1.452948 -7.387053 5.273648 5.029951 17.808074 -4.983872 8.533467 0.000000 0.000000 0.000000 0.000000 0.000000 0.000000 1.033442 2.510018 0.377465 3.668484 6.357503 -3.838105 -7.055894 -23.710741 -9.261300 -0.043589 23.263285 56.531535 0.000000 0.000000 0.000000 0.000000 0.000000 0.000000 -0.376943 -0.052660 57.450942 -0.505327 1.118763 -0.325110 0.293954 -0.490989 2.631230 0.000000 0.000000 0.000000 -0.376943 -0.052660 57.450942 -0.000000 0.000000 0.000000 -0.188411 0.670495 2.296503 0.000000 0.000000 0.000000
-98.651253 74.784010 324.247906 0.286614 -0.246783 -57.203067 -0.362692 -0.107255 57.203345 -0.000000 0.000000 0.000000 2.506555 -2.870917 0.036012 0.000000 0.000000 0.000000 -0.000000 0.000000 0.000000 2.604331 -0.081329 1.375635 -5.421710 1.819851 -2.674080 23.276569 8.198860 28.939255 0.000000 0.000000 0.000000 0.000000 0.000000 0.000000 1.048894 2.263147 0.349908 5.982274 9.751749 -6.093311 -11.639410 -23.809418 -17.878726 0.217859 13.429634 66.849009 0.000000 0.000000 0.000000 0.000000 0.000000 0.000000 -0.362692 -0.107255 57.203345 -0.511811 1.133512 -0.329330 0.288037 -0.426684 2.889148 0.000000 0.000000 0.000000 -0.362692 -0.107255 57.203345 -0.000000 0.000000 0.000000 -0.203127 0.750766 2.550906 0.000000 0.000000 0.000000
-98.588218 74.782551 324.161393 0.338558 -0.167800 -56.921020 -0.325386 -0.192101 56.920970 -0.000000 0.000000 0.000000 2.648999 -2.832510 -0.035078 0.000000 0.000000 0.000000 -0.000000 0.000000 0.000000 1.961732 -0.087787 0.993737 -1.245201 -2.093659 -5.808243 22.793942 17.991585 38.540513 0.000000 0.000000 0.000000 0.000000 0.000000 0.000000 0.502547 1.467927 0.218842 7.902906 12.193564 -7.454939 -17.368241 -25.383586 -32.673531 -0.221852 19.390290 80.315528 0.000000 0.000000 0.000000 0.000000 0.000000 0.000000 -0.325386 -0.192101 56.920970 -0.483578 1.085136 -0.315720 0.270414 -0.361835 2.896854 0.000000 0.000000 0.000000 -0.325386 -0.192101 56.920970 -0.000000 0.000000 0.000000 -0.194242 0.766308 2.573155 0.000000 0.000000 0.000000
-98.545994 74.778665 324.091106 0.344523 -0.070238 -57.025332 -0.246437 -0.250796 57.025004 -0.000000 0.000000 0.000000 2.894852 -2.811178 -0.140857 0.000000 0.000000 0.000000 2.431650 -0.609612 -0.527864 -0.741693 0.588366 1.524648 2.366829 -5.031097 -6.169765 19.977757 23.848815 42.686878 0.000000 0.000000 0.000000 0.000000 0.000000 0.000000 1.498173 2.350605 0.388781 7.284326 11.989705 -7.742881 -19.893292 -20.963507 -44.281544 -0.609806 21.537149 86.116415 0.000000 0.000000 0.000000 0.000000 0.000000 0.000000 -0.246437 -0.250796 57.025004 -0.446714 1.044457 -0.304701 0.254400 -0.363128 2.717781 0.000000 0.000000 0.000000 -0.246437 -0.250796 57.025004 -0.000000 0.000000 0.000000 -0.174359 0.721938 2.405775 0.000000 0.000000 0.000000
-98.536593 74.822084 324.102234 0.291705 -0.059673 -57.647503 -0.206510 -0.214492 57.647268 -0.000000 0.000000 0.000000 3.190785 -2.784951 -0.268727 0.000000 0.000000 0.000000 4.659243 -0.523427 -1.166309 -3.536129 0.599620 2.195452 6.372129 -5.256946 0.060854 17.106537 23.006201 38.214067 0.000000 0.000000 0.000000 0.000000 0.000000 0.000000 2.089427 3.075668 0.503783 6.472966 10.953869 -7.598450 -23.489865 -22.480274 -54.379759 -2.586122 25.344229 88.524952 0.000000 0.000000 0.000000 0.000000 0.000000 0.000000 -0.206510 -0.214492 57.647268 -0.424093 1.010005 -0.295057 0.255360 -0.416886 2.402114 0.000000 0.000000 0.000000 -0.206510 -0.214492 57.647268 -0.000000 0.000000 0.000000 -0.151901 0.629605 2.100298 0.000000 0.000000 0.000000
-98.597208 74.881880 324.221569 0.086443 -0.109950 -58.438712 -0.138932 -0.016107 58.438775 -0.000000 0.000000 0.000000 3.816680 -2.898790 -0.474027 0.000000 0.000000 0.000000 10.683261 -0.555524 -2.858819 -9.619158 0.635894 4.761564 8.753056 -5.327310 4.319177 14.901601 21.287585 33.013104 0.000000 0.000000 0.000000 0.000000 0.000000 0.000000 4.399551 4.188784 0.732534 2.886861 7.541657 -7.059065 -20.231414 -16.202231 -51.797499 1.929566 20.809890 74.472700 0.000000 0.000000 0.000000 0.000000 0.000000 0.000000 -0.138932 -0.016107 58.438775 -0.162228 0.992459 -0.298498 -0.014115 -0.535952 2.031472 0.000000 0.000000 0.000000 -0.138932 -0.016107 58.438775 -0.000000 0.000000 0.000000 -0.160122 0.489469 1.731709 0.000000 0.000000 0.000000
-98.717290 74.926667 324.498183 -0.250453 -0.307972 -59.375399 -0.137433 0.372405 59.375172 -0.000000 0.000000 0.000000 4.505372 -2.791933 -0.792117 0.000000 0.000000 0.000000 17.812130 -0.321352 -5.037359 -16.914982 -0.000618 7.921662 11.269906 -4.532554 10.563243 10.257719 18.732651 24.714757 0.000000 0.000000 0.000000 0.000000 0.000000 0.000000 6.720962 5.337360 0.918660 -0.915107 2.178556 -7.623834 -15.068549 -11.585107 -36.611636 4.229063 21.185736 55.003303 0.000000 0.000000 0.000000 0.000000 0.000000 0.000000 -0.137433 0.372405 59.375172 0.335193 1.060462 -0.336176 -0.545981 -0.776880 1.651364 0.000000 0.000000 0.000000 -0.797099 0.945264 59.342934 -0.156401 -0.859539 0.038651 -0.195310 0.314479 1.325145 0.000000 0.000000 0.000000
